<svg xmlns="http://www.w3.org/2000/svg" version="1.1" xmlns:xlink="http://www.w3.org/1999/xlink" viewBox="0 0 200 200"><rect width="200" height="200" fill="url('#gradient')"></rect><defs><linearGradient id="gradient" gradientTransform="rotate(253 0.5 0.5)"><stop offset="0%" stop-color="#ffeb14"></stop><stop offset="100%" stop-color="#eed0ba"></stop></linearGradient></defs><g><g fill="#2cbdff" transform="matrix(5.988304093567251,0,0,5.988304093567251,12.95886869197004,144.94210560558832)" stroke="#dccf90" stroke-width="0"><path d="M6.46-2.97L6.46-2.97Q6.46-3.39 6.02-3.64Q5.58-3.90 4.35-4.17Q3.12-4.44 2.31-4.89Q1.51-5.33 1.09-5.97Q0.67-6.60 0.67-7.42L0.67-7.42Q0.67-8.88 1.88-9.82Q3.08-10.76 5.02-10.76L5.02-10.76Q7.11-10.76 8.38-9.81Q9.65-8.87 9.65-7.32L9.65-7.32L6.35-7.32Q6.35-8.59 5.01-8.59L5.01-8.59Q4.49-8.59 4.14-8.31Q3.79-8.02 3.79-7.59L3.79-7.59Q3.79-7.15 4.22-6.88Q4.65-6.60 5.59-6.43Q6.53-6.25 7.25-6.01L7.25-6.01Q9.63-5.19 9.63-3.07L9.63-3.07Q9.63-1.62 8.34-0.71Q7.06 0.20 5.02 0.20L5.02 0.20Q3.66 0.20 2.60-0.29Q1.53-0.78 0.94-1.62Q0.34-2.46 0.34-3.39L0.34-3.39L3.42-3.39Q3.44-2.66 3.91-2.32Q4.38-1.98 5.11-1.98L5.11-1.98Q5.78-1.98 6.12-2.26Q6.46-2.53 6.46-2.97ZM10.76-4.82L10.75-5.38Q10.75-6.96 11.37-8.20Q11.98-9.43 13.13-10.10Q14.29-10.76 15.84-10.76L15.84-10.76Q18.21-10.76 19.58-9.29Q20.95-7.82 20.95-5.29L20.95-5.29L20.95-5.18Q20.95-2.71 19.58-1.25Q18.20 0.20 15.86 0.20L15.86 0.20Q13.60 0.20 12.24-1.16Q10.87-2.51 10.76-4.82L10.76-4.82ZM14.05-5.77L14.04-5.18Q14.04-3.71 14.50-3.03Q14.96-2.34 15.86-2.34L15.86-2.34Q17.62-2.34 17.66-5.05L17.66-5.05L17.66-5.38Q17.66-8.22 15.84-8.22L15.84-8.22Q14.19-8.22 14.05-5.77L14.05-5.77ZM26.43 0L23.13 0L23.13-8.28L21.59-8.28L21.59-10.57L23.13-10.57L23.13-11.41Q23.13-13.21 24.19-14.21Q25.25-15.21 27.18-15.21L27.18-15.21Q27.88-15.21 28.72-15L28.72-15L28.73-12.58Q28.43-12.67 27.92-12.67L27.92-12.67Q26.43-12.67 26.43-11.38L26.43-11.38L26.43-10.57L28.49-10.57L28.49-8.28L26.43-8.28L26.43 0Z"></path></g></g></svg>